<mxfile host="app.diagrams.net" modified="2022-11-14T03:48:20.576Z" agent="5.0 (Windows NT 10.0; Win64; x64) AppleWebKit/537.36 (KHTML, like Gecko) Chrome/107.0.0.0 Safari/537.36 Edg/107.0.1418.42" etag="evrH153uIzjtHclInWOh" version="20.5.3" type="github">
  <diagram id="nY1vaxFzvFTrNcdZ5vT9" name="Page-1">
    <mxGraphModel dx="962" dy="747" grid="1" gridSize="10" guides="1" tooltips="1" connect="1" arrows="1" fold="1" page="1" pageScale="1" pageWidth="827" pageHeight="1169" math="0" shadow="0">
      <root>
        <mxCell id="0" />
        <mxCell id="1" parent="0" />
        <mxCell id="0RqSvGD2xr56KYypg40D-1" value="Patient" style="shape=umlActor;verticalLabelPosition=bottom;verticalAlign=top;html=1;" parent="1" vertex="1">
          <mxGeometry x="160" y="170" width="30" height="60" as="geometry" />
        </mxCell>
        <mxCell id="0RqSvGD2xr56KYypg40D-2" value="Duty Nurse" style="shape=umlActor;verticalLabelPosition=bottom;verticalAlign=top;html=1;" parent="1" vertex="1">
          <mxGeometry x="30" y="270" width="30" height="60" as="geometry" />
        </mxCell>
        <mxCell id="0RqSvGD2xr56KYypg40D-3" value="Doctor" style="shape=umlActor;verticalLabelPosition=bottom;verticalAlign=top;html=1;" parent="1" vertex="1">
          <mxGeometry x="30" y="470" width="30" height="60" as="geometry" />
        </mxCell>
        <mxCell id="0RqSvGD2xr56KYypg40D-4" value="" style="rounded=1;whiteSpace=wrap;html=1;" parent="1" vertex="1">
          <mxGeometry x="80" y="70" width="620" height="600" as="geometry" />
        </mxCell>
        <mxCell id="0RqSvGD2xr56KYypg40D-5" value="Collecting disease signals" style="ellipse;whiteSpace=wrap;html=1;" parent="1" vertex="1">
          <mxGeometry x="550" y="135" width="90" height="50" as="geometry" />
        </mxCell>
        <mxCell id="0RqSvGD2xr56KYypg40D-11" value="Compare&lt;br&gt;disease&lt;br&gt;signal&amp;nbsp;" style="ellipse;whiteSpace=wrap;html=1;" parent="1" vertex="1">
          <mxGeometry x="550" y="330" width="100" height="60" as="geometry" />
        </mxCell>
        <mxCell id="0RqSvGD2xr56KYypg40D-15" value="Hospital ward monitoring system" style="text;html=1;strokeColor=none;fillColor=none;align=center;verticalAlign=middle;whiteSpace=wrap;rounded=0;" parent="1" vertex="1">
          <mxGeometry x="330" y="80" width="120" height="30" as="geometry" />
        </mxCell>
        <mxCell id="0RqSvGD2xr56KYypg40D-17" value="View Disease&lt;br&gt;Report" style="ellipse;whiteSpace=wrap;html=1;" parent="1" vertex="1">
          <mxGeometry x="330" y="473.75" width="80" height="52.5" as="geometry" />
        </mxCell>
        <mxCell id="0RqSvGD2xr56KYypg40D-20" value="Print Disease&lt;br&gt;Report" style="ellipse;whiteSpace=wrap;html=1;" parent="1" vertex="1">
          <mxGeometry x="420" y="477.5" width="80" height="45" as="geometry" />
        </mxCell>
        <mxCell id="0RqSvGD2xr56KYypg40D-21" value="Update Medical&lt;br&gt;Record&amp;nbsp;" style="ellipse;whiteSpace=wrap;html=1;" parent="1" vertex="1">
          <mxGeometry x="200" y="560" width="80" height="60" as="geometry" />
        </mxCell>
        <mxCell id="0RqSvGD2xr56KYypg40D-24" value="formatting signals" style="ellipse;whiteSpace=wrap;html=1;" parent="1" vertex="1">
          <mxGeometry x="460" y="190" width="120" height="40" as="geometry" />
        </mxCell>
        <mxCell id="0RqSvGD2xr56KYypg40D-25" value="send data to central&lt;br&gt;monitor" style="ellipse;whiteSpace=wrap;html=1;" parent="1" vertex="1">
          <mxGeometry x="340" y="240" width="100" height="50" as="geometry" />
        </mxCell>
        <mxCell id="0RqSvGD2xr56KYypg40D-34" value="Observe&lt;br&gt;signal abnormal" style="ellipse;whiteSpace=wrap;html=1;" parent="1" vertex="1">
          <mxGeometry x="574" y="450" width="100" height="60" as="geometry" />
        </mxCell>
        <mxCell id="0RqSvGD2xr56KYypg40D-36" value="Alarm" style="ellipse;whiteSpace=wrap;html=1;" parent="1" vertex="1">
          <mxGeometry x="600" y="605" width="70" height="30" as="geometry" />
        </mxCell>
        <mxCell id="0RqSvGD2xr56KYypg40D-55" value="View Medical&lt;br&gt;Record&amp;nbsp;" style="ellipse;whiteSpace=wrap;html=1;" parent="1" vertex="1">
          <mxGeometry x="90" y="550" width="80" height="60" as="geometry" />
        </mxCell>
        <mxCell id="0RqSvGD2xr56KYypg40D-56" value="Print Medical&lt;br&gt;Record&amp;nbsp;" style="ellipse;whiteSpace=wrap;html=1;" parent="1" vertex="1">
          <mxGeometry x="310" y="560" width="90" height="60" as="geometry" />
        </mxCell>
        <mxCell id="0lxMi82fFzMR5lvbM1BE-1" value="&amp;lt;&amp;lt;extend&amp;gt;&amp;gt;" style="html=1;verticalAlign=bottom;endArrow=open;dashed=1;endSize=8;rounded=0;entryX=0.5;entryY=1;entryDx=0;entryDy=0;exitX=0.5;exitY=0;exitDx=0;exitDy=0;" edge="1" parent="1" source="0RqSvGD2xr56KYypg40D-34" target="0RqSvGD2xr56KYypg40D-11">
          <mxGeometry relative="1" as="geometry">
            <mxPoint x="550" y="510" as="sourcePoint" />
            <mxPoint x="470" y="510" as="targetPoint" />
          </mxGeometry>
        </mxCell>
        <mxCell id="0lxMi82fFzMR5lvbM1BE-2" value="Patient" style="shape=umlActor;verticalLabelPosition=bottom;verticalAlign=top;html=1;" vertex="1" parent="1">
          <mxGeometry x="720" y="120" width="30" height="60" as="geometry" />
        </mxCell>
        <mxCell id="0lxMi82fFzMR5lvbM1BE-3" value="" style="endArrow=none;html=1;rounded=0;entryX=0.5;entryY=0.5;entryDx=0;entryDy=0;entryPerimeter=0;exitX=1;exitY=0.5;exitDx=0;exitDy=0;" edge="1" parent="1" source="0RqSvGD2xr56KYypg40D-5" target="0lxMi82fFzMR5lvbM1BE-2">
          <mxGeometry width="50" height="50" relative="1" as="geometry">
            <mxPoint x="440" y="320" as="sourcePoint" />
            <mxPoint x="490" y="270" as="targetPoint" />
          </mxGeometry>
        </mxCell>
        <mxCell id="0lxMi82fFzMR5lvbM1BE-4" value="disease monitoring" style="ellipse;whiteSpace=wrap;html=1;" vertex="1" parent="1">
          <mxGeometry x="200" y="130" width="120" height="60" as="geometry" />
        </mxCell>
        <mxCell id="0lxMi82fFzMR5lvbM1BE-5" value="&amp;lt;&amp;lt;include&amp;gt;&amp;gt;" style="endArrow=open;endSize=12;dashed=1;html=1;rounded=0;exitX=1;exitY=0.5;exitDx=0;exitDy=0;entryX=0;entryY=0.5;entryDx=0;entryDy=0;" edge="1" parent="1" source="0lxMi82fFzMR5lvbM1BE-4" target="0RqSvGD2xr56KYypg40D-5">
          <mxGeometry width="160" relative="1" as="geometry">
            <mxPoint x="480" y="300" as="sourcePoint" />
            <mxPoint x="640" y="300" as="targetPoint" />
          </mxGeometry>
        </mxCell>
        <mxCell id="0lxMi82fFzMR5lvbM1BE-6" value="&amp;lt;&amp;lt;include&amp;gt;&amp;gt;" style="endArrow=open;endSize=12;dashed=1;html=1;rounded=0;exitX=1;exitY=1;exitDx=0;exitDy=0;entryX=0;entryY=0.5;entryDx=0;entryDy=0;" edge="1" parent="1" source="0lxMi82fFzMR5lvbM1BE-4" target="0RqSvGD2xr56KYypg40D-24">
          <mxGeometry width="160" relative="1" as="geometry">
            <mxPoint x="420" y="170" as="sourcePoint" />
            <mxPoint x="560" y="170" as="targetPoint" />
          </mxGeometry>
        </mxCell>
        <mxCell id="0lxMi82fFzMR5lvbM1BE-7" value="&amp;lt;&amp;lt;include&amp;gt;&amp;gt;" style="endArrow=open;endSize=12;dashed=1;html=1;rounded=0;exitX=0.5;exitY=1;exitDx=0;exitDy=0;entryX=0.5;entryY=0;entryDx=0;entryDy=0;" edge="1" parent="1" source="0lxMi82fFzMR5lvbM1BE-4" target="0RqSvGD2xr56KYypg40D-25">
          <mxGeometry width="160" relative="1" as="geometry">
            <mxPoint x="402.42640687119297" y="191.21320343559648" as="sourcePoint" />
            <mxPoint x="470" y="220" as="targetPoint" />
          </mxGeometry>
        </mxCell>
        <mxCell id="0lxMi82fFzMR5lvbM1BE-8" value="central monitoring" style="ellipse;whiteSpace=wrap;html=1;" vertex="1" parent="1">
          <mxGeometry x="360" y="290" width="120" height="40" as="geometry" />
        </mxCell>
        <mxCell id="0lxMi82fFzMR5lvbM1BE-11" value="Standard&lt;br&gt;Signal&lt;br&gt;Library" style="shape=umlActor;verticalLabelPosition=bottom;verticalAlign=top;html=1;" vertex="1" parent="1">
          <mxGeometry x="730" y="330" width="30" height="60" as="geometry" />
        </mxCell>
        <mxCell id="0lxMi82fFzMR5lvbM1BE-12" value="&amp;lt;&amp;lt;include&amp;gt;&amp;gt;" style="endArrow=open;endSize=12;dashed=1;html=1;rounded=0;exitX=1;exitY=0.5;exitDx=0;exitDy=0;" edge="1" parent="1" source="0lxMi82fFzMR5lvbM1BE-8" target="0RqSvGD2xr56KYypg40D-11">
          <mxGeometry width="160" relative="1" as="geometry">
            <mxPoint x="402.42640687119297" y="191.21320343559648" as="sourcePoint" />
            <mxPoint x="470" y="220" as="targetPoint" />
          </mxGeometry>
        </mxCell>
        <mxCell id="0lxMi82fFzMR5lvbM1BE-13" value="" style="endArrow=none;html=1;rounded=0;entryX=0.5;entryY=0.5;entryDx=0;entryDy=0;entryPerimeter=0;exitX=1;exitY=0.5;exitDx=0;exitDy=0;" edge="1" parent="1" source="0RqSvGD2xr56KYypg40D-11" target="0lxMi82fFzMR5lvbM1BE-11">
          <mxGeometry width="50" height="50" relative="1" as="geometry">
            <mxPoint x="570" y="370" as="sourcePoint" />
            <mxPoint x="620" y="320" as="targetPoint" />
          </mxGeometry>
        </mxCell>
        <mxCell id="0lxMi82fFzMR5lvbM1BE-14" value="medical record management" style="ellipse;whiteSpace=wrap;html=1;" vertex="1" parent="1">
          <mxGeometry x="180" y="380" width="100" height="60" as="geometry" />
        </mxCell>
        <mxCell id="0lxMi82fFzMR5lvbM1BE-16" value="&amp;lt;&amp;lt;include&amp;gt;&amp;gt;" style="endArrow=open;endSize=12;dashed=1;html=1;rounded=0;exitX=0.5;exitY=1;exitDx=0;exitDy=0;entryX=0.5;entryY=0;entryDx=0;entryDy=0;" edge="1" parent="1" source="0lxMi82fFzMR5lvbM1BE-8" target="0lxMi82fFzMR5lvbM1BE-14">
          <mxGeometry width="160" relative="1" as="geometry">
            <mxPoint x="490" y="340" as="sourcePoint" />
            <mxPoint x="568.9315017163351" y="372.8881257151396" as="targetPoint" />
          </mxGeometry>
        </mxCell>
        <mxCell id="0lxMi82fFzMR5lvbM1BE-27" value="&amp;lt;&amp;lt;include&amp;gt;&amp;gt;" style="endArrow=open;endSize=12;dashed=1;html=1;rounded=0;exitX=0.5;exitY=1;exitDx=0;exitDy=0;entryX=0.5;entryY=0;entryDx=0;entryDy=0;" edge="1" parent="1" source="0lxMi82fFzMR5lvbM1BE-14" target="0RqSvGD2xr56KYypg40D-21">
          <mxGeometry width="160" relative="1" as="geometry">
            <mxPoint x="390" y="450" as="sourcePoint" />
            <mxPoint x="360" y="510" as="targetPoint" />
          </mxGeometry>
        </mxCell>
        <mxCell id="0lxMi82fFzMR5lvbM1BE-28" value="&amp;lt;&amp;lt;include&amp;gt;&amp;gt;" style="endArrow=open;endSize=12;dashed=1;html=1;rounded=0;exitX=0.5;exitY=1;exitDx=0;exitDy=0;entryX=0.5;entryY=0;entryDx=0;entryDy=0;" edge="1" parent="1" source="0lxMi82fFzMR5lvbM1BE-14" target="0RqSvGD2xr56KYypg40D-55">
          <mxGeometry width="160" relative="1" as="geometry">
            <mxPoint x="390" y="450" as="sourcePoint" />
            <mxPoint x="310" y="527.5" as="targetPoint" />
          </mxGeometry>
        </mxCell>
        <mxCell id="0lxMi82fFzMR5lvbM1BE-29" value="&amp;lt;&amp;lt;include&amp;gt;&amp;gt;" style="endArrow=open;endSize=12;dashed=1;html=1;rounded=0;entryX=0.615;entryY=0.03;entryDx=0;entryDy=0;entryPerimeter=0;exitX=0.5;exitY=1;exitDx=0;exitDy=0;" edge="1" parent="1" source="0lxMi82fFzMR5lvbM1BE-14" target="0RqSvGD2xr56KYypg40D-56">
          <mxGeometry width="160" relative="1" as="geometry">
            <mxPoint x="290" y="430" as="sourcePoint" />
            <mxPoint x="470" y="550" as="targetPoint" />
          </mxGeometry>
        </mxCell>
        <mxCell id="0lxMi82fFzMR5lvbM1BE-33" value="&amp;lt;&amp;lt;include&amp;gt;&amp;gt;" style="endArrow=open;endSize=12;dashed=1;html=1;rounded=0;exitX=0.5;exitY=0;exitDx=0;exitDy=0;entryX=0.5;entryY=1;entryDx=0;entryDy=0;" edge="1" parent="1" source="0RqSvGD2xr56KYypg40D-36" target="0RqSvGD2xr56KYypg40D-34">
          <mxGeometry width="160" relative="1" as="geometry">
            <mxPoint x="520" y="330" as="sourcePoint" />
            <mxPoint x="576.5517634188775" y="367.7011756125851" as="targetPoint" />
          </mxGeometry>
        </mxCell>
        <mxCell id="0lxMi82fFzMR5lvbM1BE-40" value="&amp;lt;&amp;lt;include&amp;gt;&amp;gt;" style="endArrow=open;endSize=12;dashed=1;html=1;rounded=0;exitX=1;exitY=0.5;exitDx=0;exitDy=0;entryX=0;entryY=0.5;entryDx=0;entryDy=0;" edge="1" parent="1" source="0RqSvGD2xr56KYypg40D-20" target="0RqSvGD2xr56KYypg40D-34">
          <mxGeometry width="160" relative="1" as="geometry">
            <mxPoint x="335.3553390593272" y="431.21320343559626" as="sourcePoint" />
            <mxPoint x="400" y="540" as="targetPoint" />
          </mxGeometry>
        </mxCell>
        <mxCell id="0lxMi82fFzMR5lvbM1BE-41" value="&amp;lt;&amp;lt;include&amp;gt;&amp;gt;" style="endArrow=open;endSize=12;dashed=1;html=1;rounded=0;exitX=1;exitY=0;exitDx=0;exitDy=0;entryX=0;entryY=1;entryDx=0;entryDy=0;" edge="1" parent="1" source="0RqSvGD2xr56KYypg40D-56" target="0RqSvGD2xr56KYypg40D-34">
          <mxGeometry width="160" relative="1" as="geometry">
            <mxPoint x="250" y="517.5" as="sourcePoint" />
            <mxPoint x="570" y="500" as="targetPoint" />
          </mxGeometry>
        </mxCell>
        <mxCell id="0lxMi82fFzMR5lvbM1BE-45" value="disease report management" style="ellipse;whiteSpace=wrap;html=1;" vertex="1" parent="1">
          <mxGeometry x="365" y="380" width="100" height="60" as="geometry" />
        </mxCell>
        <mxCell id="0lxMi82fFzMR5lvbM1BE-46" value="&amp;lt;&amp;lt;include&amp;gt;&amp;gt;" style="endArrow=open;endSize=12;dashed=1;html=1;rounded=0;exitX=0.5;exitY=1;exitDx=0;exitDy=0;entryX=0.5;entryY=0;entryDx=0;entryDy=0;" edge="1" parent="1" source="0lxMi82fFzMR5lvbM1BE-8" target="0lxMi82fFzMR5lvbM1BE-45">
          <mxGeometry width="160" relative="1" as="geometry">
            <mxPoint x="430" y="340" as="sourcePoint" />
            <mxPoint x="290" y="370" as="targetPoint" />
          </mxGeometry>
        </mxCell>
        <mxCell id="0lxMi82fFzMR5lvbM1BE-47" value="" style="endArrow=none;html=1;rounded=0;exitX=0.5;exitY=0.5;exitDx=0;exitDy=0;exitPerimeter=0;entryX=0;entryY=0;entryDx=0;entryDy=0;" edge="1" parent="1" source="0RqSvGD2xr56KYypg40D-2" target="0lxMi82fFzMR5lvbM1BE-45">
          <mxGeometry width="50" height="50" relative="1" as="geometry">
            <mxPoint x="220" y="460" as="sourcePoint" />
            <mxPoint x="270" y="410" as="targetPoint" />
          </mxGeometry>
        </mxCell>
        <mxCell id="0lxMi82fFzMR5lvbM1BE-49" value="" style="endArrow=none;html=1;rounded=0;exitX=0.5;exitY=0.5;exitDx=0;exitDy=0;exitPerimeter=0;entryX=0;entryY=1;entryDx=0;entryDy=0;" edge="1" parent="1" source="0RqSvGD2xr56KYypg40D-3" target="0lxMi82fFzMR5lvbM1BE-45">
          <mxGeometry width="50" height="50" relative="1" as="geometry">
            <mxPoint x="190" y="530" as="sourcePoint" />
            <mxPoint x="240" y="480" as="targetPoint" />
          </mxGeometry>
        </mxCell>
        <mxCell id="0lxMi82fFzMR5lvbM1BE-51" value="" style="endArrow=none;html=1;rounded=0;entryX=0;entryY=1;entryDx=0;entryDy=0;exitX=0.5;exitY=0.5;exitDx=0;exitDy=0;exitPerimeter=0;" edge="1" parent="1" source="0RqSvGD2xr56KYypg40D-3" target="0lxMi82fFzMR5lvbM1BE-14">
          <mxGeometry width="50" height="50" relative="1" as="geometry">
            <mxPoint x="100" y="390" as="sourcePoint" />
            <mxPoint x="150" y="340" as="targetPoint" />
          </mxGeometry>
        </mxCell>
        <mxCell id="0lxMi82fFzMR5lvbM1BE-52" value="&amp;lt;&amp;lt;include&amp;gt;&amp;gt;" style="endArrow=open;endSize=12;dashed=1;html=1;rounded=0;exitX=0.5;exitY=0;exitDx=0;exitDy=0;entryX=1;entryY=1;entryDx=0;entryDy=0;" edge="1" parent="1" source="0RqSvGD2xr56KYypg40D-20" target="0lxMi82fFzMR5lvbM1BE-45">
          <mxGeometry width="160" relative="1" as="geometry">
            <mxPoint x="500" y="517.5" as="sourcePoint" />
            <mxPoint x="570" y="500" as="targetPoint" />
          </mxGeometry>
        </mxCell>
        <mxCell id="0lxMi82fFzMR5lvbM1BE-53" value="&amp;lt;&amp;lt;include&amp;gt;&amp;gt;" style="endArrow=open;endSize=12;dashed=1;html=1;rounded=0;exitX=0.5;exitY=0;exitDx=0;exitDy=0;entryX=0.5;entryY=1;entryDx=0;entryDy=0;" edge="1" parent="1" source="0RqSvGD2xr56KYypg40D-17" target="0lxMi82fFzMR5lvbM1BE-45">
          <mxGeometry width="160" relative="1" as="geometry">
            <mxPoint x="500" y="517.5" as="sourcePoint" />
            <mxPoint x="570" y="500" as="targetPoint" />
          </mxGeometry>
        </mxCell>
      </root>
    </mxGraphModel>
  </diagram>
</mxfile>
